<svg width="224" height="224" viewBox="0 0 224 224" fill="none" xmlns="http://www.w3.org/2000/svg">
<circle cx="112" cy="112" r="112" fill="white"/>
<path d="M59.585 97.1973L58.1635 99.3077C41.817 124.633 45.3706 157.697 67.4029 178.801C79.4851 191.464 96.5424 197.795 113.6 197.795C113.6 197.795 113.6 197.795 59.585 97.1973Z" fill="#00A3FF"/>
<path opacity="0.6" d="M113.593 127.984L59.5781 97.1914C113.308 197.718 113.593 197.794 113.593 197.794C113.593 176.153 113.593 151.021 113.593 127.984Z" fill="#00A3FF"/>
<path opacity="0.6" d="M166.896 97.1973L168.299 99.3077C184.427 124.633 180.921 157.697 159.182 178.801C146.56 191.464 130.431 197.795 113.602 197.795C113.602 197.795 113.602 197.795 166.896 97.1973Z" fill="#00A3FF"/>
<path opacity="0.2" d="M113.602 127.328L166.828 97.2832C113.467 198.756 113.602 197.795 113.602 197.795C113.602 175.95 113.602 150.582 113.602 127.328Z" fill="#00A3FF"/>
<path opacity="0.2" d="M113.602 58.707V112.068L159.964 85.7432L113.602 58.707Z" fill="#00A3FF"/>
<path opacity="0.6" d="M113.597 58.707L66.3594 85.7432L113.597 112.068V58.707Z" fill="#00A3FF"/>
<path d="M113.597 14.0938L66.3594 85.8246L113.597 58.8368V14.0938Z" fill="#00A3FF"/>
<path opacity="0.6" d="M113.602 58.8368L159.964 85.8246L113.602 14.0938V58.8368Z" fill="#00A3FF"/>
</svg>
