<?xml version="1.0" encoding="UTF-8"?><svg id="Layer_1" xmlns="http://www.w3.org/2000/svg" xmlns:xlink="http://www.w3.org/1999/xlink" viewBox="0 0 104 104"><defs><style>.cls-1{fill:#f86e30;}.cls-2{fill:#fc306b;}.cls-3{fill:#f78f31;}.cls-4{fill:#fff;}.cls-5{fill:#ffc866;}.cls-6{fill:#e91224;}.cls-7{fill:#feb92f;}.cls-8{fill:#1a78d7;}.cls-9{fill:#0bb875;}.cls-10{fill:#53aef9;}.cls-11{fill:#827ff4;}.cls-12{fill:#74ca38;}.cls-13{fill:#4f28dd;}.cls-14{fill:none;filter:url(#drop-shadow-1);}</style><filter id="drop-shadow-1" filterUnits="userSpaceOnUse"><feOffset dx="0" dy="0"/><feGaussianBlur result="blur" stdDeviation="1"/><feFlood flood-color="#000" flood-opacity=".15"/><feComposite in2="blur" operator="in"/><feComposite in="SourceGraphic"/></filter></defs><g class="cls-14"><circle class="cls-4" cx="52" cy="52" r="49"/><path class="cls-2" d="m58.76,21.23l-6.37,3.72v-13.23c0-.29-.29-.39-.39-.39.29-.29.78-.29,1.08.2l5.68,9.7Z"/><path class="cls-13" d="m52.98,92.08c-.39.49-.78.49-1.08,0l-13.03-18.62,13.52,8.23v10.19c0,.29.39.29.59.2Z"/><path class="cls-7" d="m52.39,39.26v15.68l-19.5-11.47,7.06-11.66,12.45,7.45Z"/><path class="cls-8" d="m52.39,70.82v10.88l-13.52-8.23-11.86-17.35c-.29-.39-.59-.88-.59-1.18.1.39.29.59.59.78l25.38,15.09Z"/><path class="cls-9" d="m52.39,54.94v15.88l-25.48-15.09c-.39-.2-.49-.49-.49-.88v-.1c0-.29.1-.39.2-.69l6.27-10.58,19.5,11.47Z"/><path class="cls-1" d="m52.39,24.95v14.31l-12.45-7.45,6.27-10.68,6.17,3.82Z"/><path class="cls-6" d="m52.39,24.95l-6.17-3.82,5.59-9.6.1-.1.1-.1c.2-.2.39,0,.39.39,0,0,0,13.23,0,13.23Z"/><path class="cls-11" d="m66.01,73.46l-13.03,18.62-.1.1c-.2.2-.49,0-.49-.29v-10.19l13.62-8.23Z"/><path class="cls-5" d="m64.94,31.81l6.96,11.66-19.5,11.47v-15.68l12.54-7.45Z"/><path class="cls-10" d="m78.36,54.84c0,.39-.29.98-.49,1.37l-11.86,17.25-13.62,8.23v-10.88l25.48-15.19c.2-.29.49-.49.49-.78Z"/><path class="cls-12" d="m78.36,54.65h0c0,.39-.29.78-.49.98l-25.48,15.19v-15.88l19.5-11.47,6.27,10.49c.2.29.2.59.2.69Z"/><path class="cls-3" d="m58.76,21.23l6.17,10.58-12.54,7.45v-14.31l6.37-3.72Z"/></g></svg>